Coordinates
version=1
nRows=4
nColumns=107
inDegrees=yes

Units are S.I. units (second, meters, Newtons, ...)
If the header above contains a line with 'inDegrees', this indicates whether rotational values are in degrees (yes) or radians (no).

endheader
time	sternoclavicular_r2	sternoclavicular_r3	unrotscap_r3	unrotscap_r2	acromioclavicular_r2	acromioclavicular_r3	acromioclavicular_r1	unrothum_r1	unrothum_r3	unrothum_r2	elv_angle	shoulder_elv	shoulder1_r2	shoulder_rot	elbow_flexion	pro_sup	deviation	flexion	proximal_distal_r1	proximal_distal_r3	cmc_flexion	cmc_abduction	mp_flexion	ip_flexion	mcp2_flexion	mcp2_abduction	pm2_flexion	md2_flexion	mcp3_flexion	mcp3_abduction	pm3_flexion	md3_flexion	mcp4_flexion	mcp4_abduction	pm4_flexion	md4_flexion	mcp5_flexion	mcp5_abduction	pm5_flexion	md5_flexion	bicpt_tx	bicpt_ty	bicpt_tz	bicpt2_tx	bicpt2_ty	bicpt2_tz	ptpt_tx	ptpt_ty	ptpt_tz	FCUpt_tx	FCUpt_ty	FCUpt_tz	EDCpt_tx	EDCpt_ty	EDCpt_tz	APLpt_tx	APLpt_ty	APLpt_tz	FPLpt_tx	FPLpt_ty	FPLpt_tz	FPLpt2_tx	FPLpt2_ty	FPLpt2_tz	PEC1pt2_tx	PEC1pt2_ty	PEC1pt2_tz	PEC1pt3_tx	PEC1pt3_ty	PEC1pt3_tz	PEC2pt2_tx	PEC2pt2_ty	PEC2pt2_tz	PEC2pt3_tx	PEC2pt3_ty	PEC2pt3_tz	PEC3pt2_tx	PEC3pt2_ty	PEC3pt2_tz	PEC3pt3_tx	PEC3pt3_ty	PEC3pt3_tz	DELT2pt2a_tx	DELT2pt2a_ty	DELT2pt2a_tz	DELT2pt2_tx	DELT2pt2_ty	DELT2pt2_tz	LAT1pt2_tx	LAT1pt2_ty	LAT1pt2_tz	LAT1pt3_tx	LAT1pt3_ty	LAT1pt3_tz	LAT2pt2_tx	LAT2pt2_ty	LAT2pt2_tz	LAT2pt3_tx	LAT2pt3_ty	LAT2pt3_tz	LAT3pt2_tx	LAT3pt2_ty	LAT3pt2_tz	LAT3pt3_tx	LAT3pt3_ty	LAT3pt3_tz
      0.60000000	     -0.32312678	      0.13686125	     -0.13686125	      0.32312678	     -0.06542660	      0.52875477	      0.23767163	     -0.23767163	     -0.52875477	      0.06542660	     99.10938061	     76.50313709	     -1.72978501	    -23.73873204	     30.11712691	     48.92293202	      0.21178276	     -0.03109285	      0.25070810	     -0.01554642	     31.54531778	     -9.19808652	    -10.64492691	      0.53042065	     -7.03815907	     10.49930531	     20.83410651	    -16.54321799	     -4.17545336	     -0.13503138	     11.97094647	     15.32988532	      1.99221187	     -6.54156765	    -11.34242846	     23.99013374	      2.51756103	    -13.83699552	     -3.66122902	      5.01353174	      0.00089618	     -0.03105188	     -0.00485601	      0.01650001	     -0.01838147	     -0.00646168	      0.00393515	     -0.06723742	     -0.00399100	      0.00869087	     -0.18329814	     -0.00041978	     -0.00587074	      0.00175550	      0.00006079	      0.00003100	      0.00001240	      0.00006201	      0.00003968	      0.00011905	      0.00006697	     -0.00001041	     -0.00023580	     -0.00028296	      0.00250760	      0.00879787	      0.00612026	     -0.00820284	      0.01980583	     -0.01878579	      0.00250760	      0.00879787	      0.00612026	      0.00055252	      0.01836077	     -0.00964790	      0.00396064	      0.00489238	      0.01599862	      0.00000000	      0.00782771	      0.00000000	     -0.00718280	     -0.03319389	     -0.00645457	      0.01584022	     -0.00054945	     -0.00470329	     -0.00089254	      0.01496063	     -0.00612026	      0.00246510	      0.02159090	     -0.01785075	     -0.00599275	      0.01296304	     -0.00548273	     -0.01249552	      0.02737115	     -0.03064378	     -0.02346098	      0.01449311	     -0.00735281	     -0.01555565	      0.03162132	     -0.03829410
      0.63333333	     -0.32251505	      0.13660215	     -0.13660215	      0.32251505	     -0.06530274	      0.52775374	      0.23722168	     -0.23722168	     -0.52775374	      0.06530274	     99.28357022	     76.35830369	     -1.73282519	    -24.48979100	     30.12182078	     49.75295792	      0.21199310	     -0.02998320	      0.25092000	     -0.01499160	     32.99470038	     -8.78160936	    -14.76788859	      4.89193453	     -7.06858196	     10.77134270	     20.70319771	    -14.52784823	     -4.34218192	      0.11406770	     13.14631972	     14.35439203	      2.88735900	     -6.38937860	    -11.44302454	     19.64889411	      3.99147737	    -13.77670496	     -6.01586205	      5.06083192	      0.00089634	     -0.03105242	     -0.00485609	      0.01648383	     -0.01838274	     -0.00636220	      0.00387382	     -0.06727708	     -0.00405787	      0.00877683	     -0.18327867	     -0.00041984	     -0.00597034	      0.00179166	      0.00005063	      0.00003000	      0.00001200	      0.00005999	      0.00003840	      0.00011519	      0.00006479	     -0.00001175	     -0.00022023	     -0.00026427	      0.00250286	      0.00878121	      0.00610867	     -0.00818731	      0.01976833	     -0.01875022	      0.00250286	      0.00878121	      0.00610867	      0.00055148	      0.01832601	     -0.00962964	      0.00395518	      0.00488312	      0.01598531	      0.00000000	      0.00779789	      0.00000000	     -0.00716920	     -0.03313105	     -0.00642982	      0.01623302	     -0.00057365	     -0.00500973	     -0.00089085	      0.01493230	     -0.00610867	      0.00246044	      0.02155003	     -0.01781695	     -0.00598141	      0.01293850	     -0.00547235	     -0.01247187	      0.02731933	     -0.03058577	     -0.02341657	      0.01446567	     -0.00733889	     -0.01552620	      0.03156146	     -0.03822161
      0.66666667	     -0.32202525	      0.13639470	     -0.13639470	      0.32202525	     -0.06520356	      0.52695226	      0.23686142	     -0.23686142	     -0.52695226	      0.06520356	     99.35550905	     76.24234126	     -1.73408076	    -25.01589848	     30.20872629	     50.16847872	      0.20690472	     -0.03424985	      0.24575953	     -0.01712492	     32.26205921	     -8.90743276	    -12.78739817	      3.41675406	     -6.82599695	     10.61461505	     20.36899961	    -15.42045476	     -4.13005767	      0.04991524	     12.53928908	     14.86906797	      2.47937426	     -6.45214442	    -11.08264044	     21.56945573	      3.71171921	    -13.78746757	     -4.95203623	      5.03753440	      0.00089921	     -0.03106238	     -0.00485770	      0.01647513	     -0.01840635	     -0.00631204	      0.00384312	     -0.06729693	     -0.00409134	      0.00881994	     -0.18326886	     -0.00041967	     -0.00602020	      0.00180984	      0.00004540	      0.00003406	      0.00001362	      0.00006812	      0.00004360	      0.00013079	      0.00007357	     -0.00001112	     -0.00022831	     -0.00027397	      0.00249906	      0.00876788	      0.00609939	     -0.00817488	      0.01973831	     -0.01872175	      0.00249906	      0.00876788	      0.00609939	      0.00055064	      0.01829818	     -0.00961501	      0.00395079	      0.00487570	      0.01597461	      0.00000000	      0.00777406	      0.00000000	     -0.00715831	     -0.03308073	     -0.00641004	      0.01650245	     -0.00059076	     -0.00523046	     -0.00088949	      0.01490963	     -0.00609939	      0.00245670	      0.02151730	     -0.01778989	     -0.00597232	      0.01291885	     -0.00546404	     -0.01245293	      0.02727784	     -0.03053932	     -0.02338100	      0.01444370	     -0.00732774	     -0.01550262	      0.03151353	     -0.03816356
      0.70000000	     -0.32466735	      0.13751377	     -0.13751377	      0.32466735	     -0.06573853	      0.53127571	      0.23880478	     -0.23880478	     -0.53127571	      0.06573853	     98.82104285	     76.86788169	     -1.72475257	    -21.95939346	     29.93664113	     46.99187270	      0.22320426	     -0.03511376	      0.26214154	     -0.01755688	     32.80157370	     -8.36924410	    -14.98318479	      5.07419143	     -6.64130036	     10.71653048	     20.39090700	    -14.35085076	     -4.13591718	      0.08164650	     13.17045723	     14.59944366	      2.83226104	     -6.44804634	    -11.15308654	     19.81993388	      3.93643268	    -13.78791992	     -5.74269304	      5.06587390	      0.00089021	     -0.03103120	     -0.00485268	      0.01653155	     -0.01833244	     -0.00668937	      0.00407783	     -0.06714516	     -0.00383545	      0.00849171	     -0.18334268	     -0.00041765	     -0.00563901	      0.00167221	      0.00008298	      0.00003490	      0.00001396	      0.00006979	      0.00004467	      0.00013400	      0.00007537	     -0.00001157	     -0.00022230	     -0.00026676	      0.00251956	      0.00883981	      0.00614944	     -0.00824195	      0.01990026	     -0.01887535	      0.00251956	      0.00883981	      0.00614944	      0.00055516	      0.01844831	     -0.00969390	      0.00397438	      0.00491571	      0.01603192	      0.00000000	      0.00790307	      0.00000000	     -0.00721705	     -0.03335215	     -0.00651712	      0.01488133	     -0.00049286	     -0.00400815	     -0.00089679	      0.01503195	     -0.00614944	      0.00247686	      0.02169384	     -0.01793585	     -0.00602132	      0.01302485	     -0.00550887	     -0.01255510	      0.02750164	     -0.03078988	     -0.02357284	      0.01456221	     -0.00738786	     -0.01562982	      0.03177208	     -0.03847668
